<svg width="401" height="185" viewBox="0 0 401 185" fill="none" xmlns="http://www.w3.org/2000/svg">
<rect width="401" height="185" rx="20" fill="#212631"/>
<path d="M60.3916 141.616H63.3872L67.5034 147.314L71.4146 141.616H74.3296V152.5H70.1035V146.941L66.0459 152.639L62.0029 146.941V152.5H60.3916V141.616ZM79.5151 149.431L75.8237 141.616H80.46L83.1406 147.227L85.3013 141.616H87.2202L83.9683 149.431V152.5H79.5151V149.431ZM91.9077 144.363L90.6479 141.616H95.1084L100.44 152.507H95.6577L94.8521 150.764H90.5601L89.7617 152.507H87.9087L91.9077 144.363ZM94.083 149.087L92.7061 146.099L91.3364 149.087H94.083ZM101.935 141.616H104.586L111.493 147.417L111.5 141.616H113.111V152.5H110.46L103.546 146.721V152.5H101.935V141.616ZM115.895 141.616H118.89L123.006 147.314L126.917 141.616H129.833V152.5H125.606V146.941L121.549 152.639L117.506 146.941V152.5H115.895V141.616ZM135.633 144.363L134.374 141.616H138.834L144.166 152.507H139.383L138.578 150.764H134.286L133.487 152.507H131.634L135.633 144.363ZM137.809 149.087L136.432 146.099L135.062 149.087H137.809ZM145.66 141.616H151.937C152.748 141.616 153.456 141.702 154.061 141.873C154.671 142.043 155.179 142.283 155.584 142.59C155.995 142.898 156.302 143.267 156.507 143.696C156.712 144.126 156.815 144.6 156.815 145.117C156.815 145.757 156.664 146.326 156.361 146.824C156.058 147.317 155.609 147.71 155.013 148.003L157.298 152.507H152.516L150.787 148.552H149.894V152.5H145.66V141.616ZM150.15 147.227C150.497 147.227 150.807 147.178 151.08 147.08C151.354 146.982 151.585 146.846 151.776 146.67C151.966 146.489 152.113 146.277 152.215 146.033C152.318 145.784 152.369 145.513 152.369 145.22C152.369 144.927 152.318 144.658 152.215 144.414C152.113 144.165 151.966 143.953 151.776 143.777C151.585 143.596 151.354 143.457 151.08 143.359C150.807 143.262 150.497 143.213 150.15 143.213H149.901L149.894 147.227H150.15ZM163.883 141.616H166.878L170.995 147.314L174.906 141.616H177.821V152.5H173.595V146.941L169.537 152.639L165.494 146.941V152.5H163.883V141.616ZM179.974 147.036C179.974 146.211 180.106 145.457 180.37 144.773C180.633 144.084 181.026 143.494 181.549 143C182.071 142.507 182.723 142.124 183.504 141.851C184.286 141.577 185.194 141.44 186.229 141.44C187.264 141.44 188.172 141.577 188.954 141.851C189.735 142.124 190.387 142.507 190.909 143C191.432 143.494 191.825 144.084 192.088 144.773C192.352 145.457 192.484 146.211 192.484 147.036C192.484 147.871 192.352 148.635 192.088 149.329C191.825 150.022 191.432 150.615 190.909 151.108C190.387 151.602 189.735 151.985 188.954 152.258C188.172 152.532 187.264 152.668 186.229 152.668C185.194 152.668 184.286 152.532 183.504 152.258C182.723 151.985 182.071 151.602 181.549 151.108C181.026 150.615 180.633 150.022 180.37 149.329C180.106 148.635 179.974 147.871 179.974 147.036ZM186.229 151.152C186.522 151.152 186.781 151.101 187.005 150.999C187.23 150.896 187.418 150.696 187.569 150.398C187.721 150.1 187.835 149.683 187.914 149.146C187.992 148.608 188.031 147.905 188.031 147.036C188.031 146.177 187.992 145.481 187.914 144.949C187.835 144.417 187.721 144.004 187.569 143.711C187.418 143.418 187.23 143.22 187.005 143.118C186.781 143.015 186.522 142.964 186.229 142.964C185.936 142.964 185.675 143.015 185.445 143.118C185.221 143.22 185.033 143.418 184.881 143.711C184.73 144.004 184.615 144.417 184.537 144.949C184.459 145.481 184.42 146.177 184.42 147.036C184.42 147.905 184.459 148.608 184.537 149.146C184.615 149.683 184.73 150.1 184.881 150.398C185.033 150.696 185.221 150.896 185.445 150.999C185.675 151.101 185.936 151.152 186.229 151.152ZM194.63 141.616H197.281L204.188 147.417L204.195 141.616H205.807V152.5H203.155L196.241 146.721V152.5H194.63V141.616ZM208.59 141.616H217.789V143.293H212.831L212.823 146.23H216.617V147.908H212.823V150.823H217.789V152.5H208.59V141.616ZM222.367 149.431L218.675 141.616H223.312L225.992 147.227L228.153 141.616H230.072L226.82 149.431V152.5H222.367V149.431ZM236.305 141.616H239.3L243.417 147.314L247.328 141.616H250.243V152.5H246.017V146.941L241.959 152.639L237.916 146.941V152.5H236.305V141.616ZM256.043 144.363L254.784 141.616H259.244L264.576 152.507H259.793L258.988 150.764H254.696L253.897 152.507H252.044L256.043 144.363ZM258.219 149.087L256.842 146.099L255.472 149.087H258.219ZM266.07 141.616H270.545C271.805 141.616 272.896 141.736 273.819 141.975C274.742 142.209 275.506 142.556 276.112 143.015C276.717 143.474 277.167 144.038 277.459 144.707C277.752 145.376 277.899 146.143 277.899 147.007C277.899 147.778 277.752 148.499 277.459 149.167C277.167 149.832 276.717 150.413 276.112 150.911C275.506 151.404 274.742 151.792 273.819 152.075C272.896 152.358 271.805 152.5 270.545 152.5H266.07V141.616ZM270.304 150.903C270.792 150.903 271.231 150.828 271.622 150.676C272.013 150.525 272.342 150.291 272.611 149.973C272.884 149.656 273.092 149.253 273.233 148.765C273.38 148.271 273.453 147.683 273.453 147C273.453 146.321 273.38 145.742 273.233 145.264C273.087 144.785 272.877 144.395 272.604 144.092C272.33 143.784 271.998 143.562 271.607 143.425C271.222 143.284 270.79 143.213 270.311 143.213L270.304 150.903ZM280.045 141.616H289.244V143.293H284.286L284.278 146.23H288.072V147.908H284.278V150.823H289.244V152.5H280.045V141.616ZM295.982 141.616H305.182V143.293H300.223L300.216 146.23H304.01V147.908H300.216V150.823H305.182V152.5H295.982V141.616ZM310.375 144.363L309.115 141.616H313.575L318.907 152.507H314.125L313.319 150.764H309.027L308.229 152.507H306.375L310.375 144.363ZM312.55 149.087L311.173 146.099L309.803 149.087H312.55ZM320.548 150.083C321.065 150.347 321.607 150.544 322.174 150.676C322.74 150.808 323.268 150.874 323.756 150.874C324.317 150.874 324.728 150.793 324.986 150.632C325.25 150.471 325.382 150.251 325.382 149.973C325.382 149.885 325.365 149.795 325.331 149.702C325.301 149.609 325.24 149.519 325.147 149.431C325.06 149.338 324.935 149.248 324.774 149.16C324.618 149.067 324.413 148.977 324.159 148.889L322.848 148.442C321.91 148.12 321.205 147.686 320.731 147.139C320.257 146.587 320.021 145.933 320.021 145.176C320.021 144.688 320.123 144.219 320.328 143.77C320.533 143.315 320.843 142.917 321.258 142.576C321.673 142.229 322.196 141.953 322.826 141.748C323.46 141.543 324.203 141.44 325.052 141.44C325.472 141.44 325.875 141.465 326.261 141.514C326.646 141.562 327.008 141.626 327.345 141.704C327.687 141.782 327.999 141.873 328.282 141.975C328.565 142.073 328.814 142.17 329.029 142.268L328.238 143.696C328.082 143.599 327.916 143.513 327.74 143.44C327.569 143.367 327.396 143.306 327.22 143.257C327.049 143.208 326.881 143.171 326.715 143.147C326.549 143.123 326.397 143.11 326.261 143.11C326.026 143.11 325.821 143.142 325.646 143.206C325.47 143.264 325.321 143.345 325.199 143.447C325.082 143.545 324.991 143.657 324.928 143.784C324.869 143.906 324.84 144.028 324.84 144.15C324.84 144.258 324.864 144.363 324.913 144.465C324.967 144.563 325.055 144.661 325.177 144.758C325.304 144.851 325.467 144.946 325.667 145.044C325.873 145.137 326.126 145.234 326.429 145.337L327.308 145.63C328.26 145.947 328.988 146.384 329.491 146.941C329.994 147.498 330.245 148.171 330.245 148.962C330.245 149.5 330.123 149.995 329.879 150.449C329.64 150.903 329.281 151.296 328.802 151.628C328.324 151.956 327.728 152.212 327.015 152.397C326.307 152.578 325.484 152.668 324.547 152.668C324.098 152.668 323.663 152.644 323.243 152.595C322.828 152.551 322.42 152.483 322.02 152.39C321.625 152.297 321.234 152.18 320.848 152.039C320.462 151.897 320.077 151.731 319.691 151.541L320.548 150.083ZM334.676 149.431L330.985 141.616H335.621L338.302 147.227L340.462 141.616H342.381L339.129 149.431V152.5H334.676V149.431Z" fill="#F9F9F9"/>
<path d="M92.0107 95.7871H81.6592V90.1963H116.474V95.7871H106.122V126.5H92.0107V95.7871ZM121.771 90.2207H135.883V105.431H146.308V90.2207H160.443L160.419 126.5H146.308V111.021H135.883V126.5H121.771V90.2207ZM169.721 90.2207H200.385V95.8115H183.856L183.832 105.602H196.479V111.192H183.832V120.909H200.385V126.5H169.721V90.2207Z" fill="#F9F9F9"/>
<path d="M223.334 118.443C225.059 119.322 226.866 119.981 228.754 120.421C230.642 120.86 232.4 121.08 234.027 121.08C235.899 121.08 237.266 120.812 238.129 120.274C239.008 119.737 239.447 119.005 239.447 118.077C239.447 117.784 239.39 117.483 239.276 117.174C239.179 116.865 238.975 116.563 238.666 116.271C238.373 115.961 237.958 115.66 237.421 115.367C236.9 115.058 236.216 114.757 235.37 114.464L231 112.975C227.875 111.9 225.523 110.452 223.944 108.629C222.366 106.79 221.576 104.609 221.576 102.086C221.576 100.458 221.918 98.8958 222.602 97.3984C223.285 95.8848 224.319 94.5583 225.702 93.4189C227.086 92.2633 228.827 91.3438 230.927 90.6602C233.043 89.9766 235.517 89.6348 238.349 89.6348C239.748 89.6348 241.091 89.7161 242.377 89.8789C243.663 90.0417 244.867 90.2533 245.99 90.5137C247.13 90.7741 248.171 91.0752 249.115 91.417C250.059 91.7425 250.889 92.068 251.605 92.3936L248.969 97.1543C248.448 96.8288 247.895 96.5439 247.309 96.2998C246.739 96.0557 246.161 95.8522 245.575 95.6895C245.006 95.5267 244.444 95.4046 243.891 95.3232C243.337 95.2419 242.833 95.2012 242.377 95.2012C241.596 95.2012 240.912 95.307 240.326 95.5186C239.74 95.7139 239.244 95.9824 238.837 96.3242C238.446 96.6497 238.145 97.0241 237.934 97.4473C237.738 97.8542 237.641 98.2611 237.641 98.668C237.641 99.026 237.722 99.376 237.885 99.7178C238.064 100.043 238.357 100.369 238.764 100.694C239.187 101.004 239.732 101.321 240.399 101.646C241.083 101.956 241.929 102.281 242.938 102.623L245.868 103.6C249.042 104.658 251.467 106.114 253.144 107.97C254.82 109.825 255.658 112.071 255.658 114.708C255.658 116.498 255.251 118.15 254.438 119.664C253.64 121.178 252.444 122.488 250.849 123.595C249.254 124.685 247.268 125.54 244.892 126.158C242.532 126.76 239.789 127.062 236.664 127.062C235.167 127.062 233.718 126.98 232.318 126.817C230.935 126.671 229.576 126.443 228.241 126.134C226.923 125.825 225.621 125.434 224.335 124.962C223.049 124.49 221.763 123.937 220.478 123.302L223.334 118.443ZM262.445 90.2207H276.581L276.557 126.5H262.445V90.2207ZM293.744 109.068L281.977 90.2207H297.919L304.999 101.549L312.226 90.2207H318.598L308.002 106.383L320.6 126.5L304.657 126.524L296.698 113.829L288.471 126.524H282.074L293.744 109.068Z" fill="#E10404"/>
<path d="M183.5 29L240.5 29.5L212.5 78.5H153L183.5 29Z" fill="#E10404"/>
<path d="M183.422 29.2547L212.5 78.5002" stroke="#840202" stroke-opacity="0.18"/>
</svg>
